Coordinates
version=1
nRows=7
nColumns=40
inDegrees=yes

Units are S.I. units (second, meters, Newtons, ...)
Angles are in degrees.

endheader
time	pelvis_tilt	pelvis_list	pelvis_rotation	pelvis_tx	pelvis_ty	pelvis_tz	hip_flexion_r	hip_adduction_r	hip_rotation_r	knee_angle_r	knee_angle_r_beta	ankle_angle_r	subtalar_angle_r	mtp_angle_r	hip_flexion_l	hip_adduction_l	hip_rotation_l	knee_angle_l	knee_angle_l_beta	ankle_angle_l	subtalar_angle_l	mtp_angle_l	lumbar_extension	lumbar_bending	lumbar_rotation	arm_flex_r	arm_add_r	arm_rot_r	elbow_flex_r	pro_sup_r	wrist_flex_r	wrist_dev_r	arm_flex_l	arm_add_l	arm_rot_l	elbow_flex_l	pro_sup_l	wrist_flex_l	wrist_dev_l
     37.77000000	     -5.98805236	     -6.07670265	    -11.18398235	      0.90796362	      0.92868633	      0.42877006	     27.06506798	     -1.17348528	     -5.18109642	     26.30597346	     26.30597346	      4.94829556	     -2.86928052	     -3.22683854	      8.92133274	     -6.22769009	     -9.73723368	     21.63777032	     21.63777032	     19.41249239	    -14.60562904	      5.07409838	     -9.52734856	      6.42288898	      3.17189652	    -15.89411968	    -11.56611894	    -14.09287885	     25.52586273	     46.62602283	      0.00000000	      0.00000000	     29.89429373	    -19.14638104	     -9.07125511	     60.50178899	     47.25709446	      0.00000000	      0.00000000
     37.78857143	     -6.09269899	     -5.88540517	    -11.26011618	      0.90784064	      0.92799408	      0.43149864	     26.33209486	     -1.09290568	     -6.42045763	     22.33499265	     22.33499265	      5.72709180	      1.12751242	      0.30060056	      8.27161733	     -6.17467430	    -10.23720498	     20.93373865	     20.93373865	     18.96734436	    -14.17031127	      3.17123444	     -9.51328569	      6.14932268	      2.99629546	    -16.34610843	    -11.45810364	    -13.41225090	     26.95821068	     46.49115851	      0.00000000	      0.00000000	     30.02719504	    -19.39321675	    -10.31029859	     63.62378742	     47.41285120	      0.00000000	      0.00000000
     37.80714286	     -6.11775875	     -5.66697883	    -11.26100938	      0.90805270	      0.92712778	      0.43442048	     25.54969675	     -0.92175806	     -7.17264373	     18.86401086	     18.86401086	      5.59414827	      3.93600561	      1.81379872	      7.60113512	     -6.06446854	    -10.56878592	     20.40030716	     20.40030716	     19.13961565	    -13.66098382	      2.71084962	     -9.42973291	      5.85226148	      3.28230369	    -16.36206206	    -11.19952249	    -13.06376327	     26.92560684	     46.46228657	      0.00000000	      0.00000000	     31.04646371	    -19.33455672	    -10.45234572	     64.72154920	     47.45234930	      0.00000000	      0.00000000
     37.82571429	     -6.22625008	     -5.48350642	    -11.15200080	      0.90855202	      0.92593641	      0.43737045	     25.00368198	     -0.71745714	     -7.69519811	     16.23050434	     16.23050434	      5.36509841	      6.05980992	      2.97142683	      7.07835805	     -6.00486651	    -10.72895776	     19.98864331	     19.98864331	     19.35719389	    -13.23027364	      2.29879921	     -9.21517525	      5.71561037	      3.44873124	    -16.30559116	    -11.06026932	    -12.88051240	     26.93862472	     46.44647140	      0.00000000	      0.00000000	     31.81995098	    -19.29863923	    -10.57191674	     65.69082461	     47.48452788	      0.00000000	      0.00000000
     37.84428571	     -6.25355061	     -5.25652583	    -10.98293866	      0.90940457	      0.92472395	      0.44031858	     24.76743521	     -0.76178230	     -8.55972894	     14.94467960	     14.94467960	      5.91531323	      8.51049386	      5.43087058	      6.41909641	     -5.91067051	    -11.04091838	     19.48320037	     19.48320037	     19.25804839	    -12.63503071	      0.84180510	     -9.09664906	      5.51159342	      3.22526462	    -15.85160668	    -11.07774664	    -12.10120502	     26.95880214	     46.38604898	      0.00000000	      0.00000000	     31.91357397	    -19.42748328	    -11.31293255	     67.85844288	     47.58610622	      0.00000000	      0.00000000
     37.86285714	     -6.26714584	     -5.06387146	    -10.74815905	      0.91067505	      0.92363527	      0.44344128	     24.46430150	     -0.67939195	     -8.65297668	     14.02458804	     14.02458804	      5.67762538	      9.30845555	      5.58397814	      5.71419066	     -5.80652050	    -11.07239969	     18.97767521	     18.97767521	     19.51846216	    -12.17098296	      0.64554970	     -8.88687630	      5.40105860	      3.40764562	    -15.57323535	    -10.98726300	    -11.95196690	     26.92575320	     46.37817476	      0.00000000	      0.00000000	     32.50673295	    -19.23951579	    -11.37417809	     68.51048290	     47.60695108	      0.00000000	      0.00000000
     37.88142857	     -6.21852015	     -4.96483233	    -10.44356498	      0.91238711	      0.92259394	      0.44667315	     24.18729624	     -0.62789041	     -8.96336998	     13.77418214	     13.77418214	      5.12339270	     10.01783143	      4.01924974	      4.90607828	     -5.86031842	    -11.32028698	     18.49043556	     18.49043556	     19.72785416	    -11.29638201	     -0.08961438	     -8.76160248	      5.41760828	      3.32783632	    -14.97507946	    -11.10020002	    -11.52160234	     26.56045636	     46.36800381	      0.00000000	      0.00000000	     32.51481188	    -19.08192564	    -11.91066276	     70.05199290	     47.67792089	      0.00000000	      0.00000000
